<svg xmlns="http://www.w3.org/2000/svg" width="100" height="100" viewBox="0 0 100 100"><path fill="#B0B0B1" d="M49.9 0L2.8 16.6l7.4 61.6L49.9 100l39.9-22.1 7.4-61.6L49.9 0z"/><path fill="#924A47" d="M92.5 19.8L49.7 5.2v89.6L85.6 75l6.9-55.2z"/><path fill="#BA4F46" d="M8.1 20.1l6.4 55.1 35.3 19.6V5.2L8.1 20.1z"/><path fill="#F1F1F1" d="M59.7 49.8l-9.8-20.5-8.7 20.5h18.5zm3.7 8.6H37.3L31.5 73l-10.8.2 29-64.7 30.1 64.7h-10l-6.4-14.8z"/><path fill="#B0B0B1" d="M49.7 8.5l.1 20.7 9.8 20.6h-9.9v8.6h13.7l6.4 14.8 10.4.2L49.7 8.5z"/></svg>