<svg xmlns="http://www.w3.org/2000/svg" width="100" height="100" viewBox="0 0 100 100"><linearGradient id="a" gradientUnits="userSpaceOnUse" x1="-1911.277" y1="2845.958" x2="-1850.495" y2="2785.177" gradientTransform="matrix(1 0 0 -1 1950 2857.03)"><stop offset="0" stop-color="#dd9e4e"/><stop offset="1" stop-color="#da9559"/></linearGradient><path fill="url(#a)" d="M97.4 69.9c0-.4.1-.8.1-1.3S67.3 39.4 67.3 39.4h-.7c-.1 0 30.6 32.4 30.8 30.5z"/><linearGradient id="b" gradientUnits="userSpaceOnUse" x1="-1956.6" y1="2835.788" x2="-1902.788" y2="2781.975" gradientTransform="matrix(1 0 0 -1 1950 2857.03)"><stop offset="0" stop-color="#dd9e4e"/><stop offset="1" stop-color="#da9559"/></linearGradient><path fill="url(#b)" d="M32.8 60c0 .1-.1.2-.1.3 0 .1-.1.2-.1.3-1 2 13.5 16.2 14.7 14.4.1-.1.1-.2.2-.2.1-.1.1-.2.2-.3C48.5 73 33.2 59 32.8 60z"/><linearGradient id="c" gradientUnits="userSpaceOnUse" x1="-1936.61" y1="2816.433" x2="-1882.103" y2="2761.927" gradientTransform="matrix(1 0 0 -1 1950 2857.03)"><stop offset="0" stop-color="#dd9e4e"/><stop offset="1" stop-color="#da9559"/></linearGradient><path fill="url(#c)" d="M53.2 79.9c0 .1-.3.6-.6.8 0 .1 14.1 14.1 14.1 14.1H68S54.7 80.5 53.2 79.9z"/><linearGradient id="d" gradientUnits="userSpaceOnUse" x1="-1946.901" y1="2854.676" x2="-1861.575" y2="2769.35" gradientTransform="matrix(1 0 0 -1 1950 2857.03)"><stop offset="0" stop-color="#cd6f5d"/><stop offset="1" stop-color="#dd9e4e"/></linearGradient><path fill="url(#d)" d="M97.5 68.4c-.7 14.7-12.8 26.4-27.7 26.4h-2L53 80.2c1.2-1.7 2.4-3.5 3.4-5.4h13.5c4.3 0 7.7-3.5 7.7-7.7 0-4.3-3.5-7.7-7.7-7.7h-8c.6-3.2.9-6.5.9-9.9 0-3.4-.3-6.8-1-10.1h5l30.6 30.2c0-.4 0-.8.1-1.2zM9.5 4H1.4v20h8.1C23.6 24 35 35.4 35 49.5c0 3.8-.9 7.5-2.4 10.7l14.7 14.5c4.8-7.2 7.6-15.9 7.6-25.2C55 24.4 34.6 4 9.5 4z"/><linearGradient id="e" gradientUnits="userSpaceOnUse" x1="-1903.269" y1="2862.579" x2="-1840.355" y2="2799.665" gradientTransform="matrix(1 0 0 -1 1950 2857.03)"><stop offset="0" stop-color="#9c5053"/><stop offset="1" stop-color="#d78c54"/></linearGradient><path fill="url(#e)" d="M69.8 4H37.2c8 4.9 14.6 11.8 19.1 20h13.6c4.3 0 7.7 3.5 7.7 7.7 0 4.3-3.5 7.7-7.7 7.7h-3l30.6 30.2c.1-.8.1-1.6.1-2.5 0-6.7-2.4-12.9-6.4-17.7 4-4.8 6.4-11 6.4-17.7C97.5 16.4 85.1 4 69.8 4z"/><linearGradient id="f" gradientUnits="userSpaceOnUse" x1="-1941.917" y1="2788.642" x2="-1898.831" y2="2745.556" gradientTransform="matrix(1 0 0 -1 1950 2857.03)"><stop offset="0" stop-color="#dd9e4e"/><stop offset="1" stop-color="#da9559"/></linearGradient><path fill="url(#f)" d="M67.8 94.8H37.4C43.5 91 48.8 86 53 80.2l14.8 14.6zM47.4 74.7L32.7 60.2C28.6 69 19.7 75 9.5 75H1.4v20h8.1c15.8 0 29.7-8.1 37.9-20.3z"/></svg>